<?xml version="1.0" standalone="no"?>
<!DOCTYPE svg PUBLIC "-//W3C//DTD SVG 20010904//EN"
 "http://www.w3.org/TR/2001/REC-SVG-20010904/DTD/svg10.dtd">
<svg version="1.0" xmlns="http://www.w3.org/2000/svg"
 width="341.000000pt" height="341.000000pt" viewBox="0 0 341.000000 341.000000"
 preserveAspectRatio="xMidYMid meet">
<metadata>
Created by potrace 1.14, written by Peter Selinger 2001-2017
</metadata>
<g transform="translate(0.000000,341.000000) scale(0.100000,-0.100000)"
fill="#000000" stroke="none">
<path d="M812 2913 c-6 -3 -10 -9 -6 -14 3 -5 0 -9 -6 -9 -6 0 -9 -4 -6 -9 4
-5 2 -11 -4 -13 -6 -2 -13 -14 -16 -28 -3 -14 -6 -29 -7 -35 -2 -5 -5 -14 -8
-20 -4 -9 -3 -200 2 -232 1 -7 5 -13 9 -13 3 0 6 -10 7 -22 0 -13 3 -41 7 -63
3 -22 8 -69 11 -105 3 -42 15 -83 32 -115 14 -27 27 -61 30 -75 10 -62 10 -94
-2 -117 -7 -13 -11 -38 -8 -54 2 -17 -1 -37 -8 -45 -6 -8 -8 -14 -3 -14 5 0 9
-18 10 -41 0 -24 6 -44 15 -50 7 -5 10 -9 4 -9 -5 0 -10 -11 -10 -25 0 -14 3
-25 8 -25 4 0 7 -5 7 -11 0 -5 -4 -8 -8 -5 -5 3 -9 -1 -9 -9 0 -8 4 -15 9 -15
5 0 6 -10 3 -21 -5 -15 -4 -19 4 -15 6 4 11 2 11 -3 0 -6 -5 -11 -10 -11 -7 0
-7 -6 0 -19 13 -26 13 -31 -3 -25 -8 3 -14 -2 -14 -10 0 -8 4 -13 9 -10 5 4 4
-3 -4 -15 -7 -12 -19 -21 -27 -21 -11 0 -9 -4 5 -15 10 -8 14 -15 8 -15 -6 0
-11 -19 -12 -42 -1 -23 -6 -46 -11 -51 -5 -5 -7 -16 -4 -23 3 -8 0 -14 -7 -14
-6 0 -8 -4 -5 -10 3 -5 0 -10 -7 -10 -9 0 -9 -3 2 -10 12 -7 12 -10 1 -10 -8
0 -11 -6 -7 -16 3 -8 2 -12 -3 -9 -5 3 -12 -4 -16 -15 -4 -12 -11 -17 -18 -13
-7 4 -6 -1 2 -10 10 -13 11 -20 2 -30 -6 -8 -8 -17 -4 -21 4 -4 -1 -4 -11 0
-16 6 -17 4 -8 -13 8 -14 8 -23 0 -31 -7 -7 -8 -12 -3 -12 5 0 1 -6 -10 -13
-14 -11 -15 -16 -5 -22 9 -6 11 -4 5 5 -5 9 -4 11 3 6 9 -5 8 -14 -4 -31 -10
-16 -12 -25 -4 -30 7 -4 8 -11 2 -18 -5 -7 -8 -22 -7 -34 1 -15 -4 -23 -14
-24 -11 0 -12 -2 -3 -6 10 -4 10 -8 0 -21 -11 -13 -11 -15 2 -8 8 4 7 1 -3 -7
-14 -11 -15 -16 -5 -20 9 -4 10 -8 3 -14 -6 -4 -10 -15 -10 -23 1 -8 -2 -23
-7 -32 -5 -10 -4 -19 3 -23 6 -5 4 -12 -8 -22 -10 -8 -13 -12 -6 -9 16 8 24
-7 13 -24 -5 -9 -4 -20 3 -29 9 -12 9 -13 0 -7 -7 4 -13 2 -13 -3 0 -6 6 -11
13 -11 7 0 8 -3 2 -8 -15 -11 -17 -32 -3 -32 9 0 8 -4 -2 -10 -10 -6 -11 -10
-2 -10 14 0 12 -21 -3 -32 -6 -5 -5 -8 3 -8 6 0 12 -5 12 -11 0 -5 -6 -7 -12
-3 -10 6 -10 4 -2 -7 14 -18 -11 -84 -28 -73 -6 4 -8 3 -4 -4 3 -6 2 -13 -4
-17 -6 -4 -8 -11 -5 -16 4 -5 1 -9 -5 -9 -7 0 -10 -7 -6 -15 3 -8 1 -15 -4
-15 -6 0 -10 -6 -10 -14 0 -8 -4 -16 -9 -18 -6 -1 -13 -18 -16 -36 l-5 -32
971 0 c853 0 970 2 965 15 -3 8 0 15 6 15 7 0 6 5 -2 15 -11 14 -10 14 14 5
34 -13 46 -12 24 1 -10 5 -18 21 -18 35 0 14 -4 22 -10 19 -15 -9 -12 11 3 24
10 8 17 7 27 -2 8 -6 7 -3 -3 9 -9 11 -14 24 -10 29 5 4 2 4 -6 0 -11 -6 -13
-4 -8 9 4 10 7 20 7 22 0 3 5 2 12 -2 7 -4 8 -3 4 5 -6 9 -11 9 -22 0 -12 -10
-13 -9 -8 5 3 9 11 16 18 16 6 0 4 5 -4 10 -8 5 -11 10 -6 10 5 0 2 8 -5 18
-7 9 -2 7 13 -6 19 -17 28 -20 33 -11 5 7 4 10 -3 5 -6 -4 -16 4 -23 16 -11
20 -10 21 3 11 12 -10 15 -10 15 2 0 7 -3 14 -6 13 -25 -2 -33 5 -13 12 22 10
31 30 11 30 -5 0 -7 -4 -4 -10 3 -5 2 -10 -3 -10 -5 0 -12 11 -14 25 -3 13 -2
23 1 21 3 -2 11 2 18 9 10 10 9 14 -3 19 -9 3 -12 1 -9 -4 3 -6 1 -10 -5 -10
-7 0 -9 7 -6 16 4 9 1 24 -6 32 -8 9 -8 13 -2 9 7 -4 12 2 12 17 -1 14 -6 23
-12 22 -6 -2 -8 -1 -3 1 4 3 4 10 0 16 -4 6 0 8 10 4 12 -5 17 -1 17 13 0 11
5 20 12 20 6 0 8 3 5 6 -4 4 -13 2 -21 -5 -11 -9 -15 -8 -20 4 -3 9 -2 14 3
11 5 -3 11 1 15 9 3 8 0 17 -6 21 -7 4 -8 3 -4 -4 4 -7 2 -10 -7 -6 -14 5 -16
31 -3 52 7 11 1 16 -15 14 -4 -1 -5 8 -2 19 4 12 0 25 -8 31 -10 7 -8 8 9 5
l22 -5 -20 28 c-14 20 -17 31 -9 36 8 4 7 9 -2 16 -10 6 -7 7 9 3 13 -4 22 -2
22 4 0 6 -9 11 -20 11 -11 0 -20 7 -20 15 0 8 -6 15 -12 16 -7 0 -4 4 7 9 17
7 17 9 3 9 -10 1 -18 6 -18 12 0 5 4 8 8 5 5 -3 9 1 9 9 0 8 -5 11 -10 8 -5
-3 -7 0 -5 8 3 8 14 13 26 13 12 -1 19 3 16 7 -3 5 -10 7 -15 4 -5 -4 -9 -1
-9 4 0 6 6 11 13 11 8 0 7 3 -3 9 -8 6 -17 8 -21 5 -4 -2 -11 0 -14 6 -4 6 -1
9 7 8 8 -2 12 5 11 17 l-2 20 16 -20 c14 -18 15 -18 9 -1 -3 10 -2 24 4 31 8
10 8 15 -1 20 -8 6 -7 10 2 16 11 7 9 9 -5 9 -11 0 -17 2 -14 6 3 3 2 21 -2
40 -5 21 -4 37 3 41 6 3 7 1 3 -5 -4 -7 -3 -12 3 -12 5 0 9 9 8 19 0 11 -4 18
-8 15 -4 -2 -9 7 -11 21 -4 18 -1 25 11 25 14 0 14 2 1 10 -8 5 -11 10 -6 10
5 0 3 7 -4 15 -11 13 -10 14 3 10 8 -4 18 -1 22 5 3 6 1 9 -6 8 -16 -4 -19 40
-2 46 7 3 10 12 6 22 -5 13 -3 15 8 9 11 -7 11 -5 -1 10 -14 17 -13 18 8 13
12 -4 20 -2 16 3 -3 5 -13 9 -22 9 -15 0 -15 2 -2 10 11 7 11 10 2 10 -9 0
-10 5 -2 19 12 24 13 34 2 27 -5 -3 -9 1 -9 9 0 8 4 15 9 15 5 0 7 4 4 9 -4 5
-1 11 5 13 9 3 9 9 0 26 -8 15 -8 22 -1 22 7 0 7 7 -1 22 -10 18 -9 20 5 15 8
-3 18 -2 21 3 4 6 -2 10 -12 11 -16 0 -16 1 2 9 19 8 19 9 -2 9 -12 1 -25 5
-28 11 -4 6 1 7 12 3 15 -6 16 -4 5 9 -7 9 -11 22 -10 29 2 8 -3 13 -11 11 -9
-2 -12 4 -8 18 4 14 0 20 -11 20 -15 1 -15 2 1 14 9 7 17 17 17 22 0 4 -5 3
-12 -4 -15 -15 -28 -16 -28 -2 0 5 12 13 26 16 l27 7 -29 13 c-16 7 -23 13
-16 13 6 1 12 6 12 12 0 7 8 18 18 26 9 8 11 11 3 7 -9 -5 -8 2 5 19 10 15 23
27 27 27 5 0 5 5 2 10 -3 6 -1 10 6 10 8 0 8 4 -2 16 -10 13 -10 17 2 25 11 7
10 9 -5 9 -11 0 -16 3 -13 7 4 3 2 12 -5 20 -8 11 -7 12 5 8 11 -5 15 0 15 17
0 31 7 72 15 84 3 6 8 21 11 35 6 36 17 59 25 55 3 -2 5 10 5 27 -1 18 1 37 5
42 17 29 24 204 8 223 -8 10 -7 16 4 23 9 6 3 7 -18 4 -18 -2 -33 0 -33 4 0 4
-13 8 -30 8 -16 0 -30 -4 -30 -9 0 -5 -6 -8 -12 -7 -7 2 -30 -5 -52 -14 -21
-9 -42 -17 -46 -17 -5 0 -10 -3 -12 -7 -1 -5 -19 -16 -39 -26 -31 -16 -55 -33
-110 -79 -9 -7 -23 -17 -31 -23 -20 -13 -100 -72 -114 -84 -7 -5 -15 -7 -18
-3 -4 3 -11 0 -16 -8 -7 -10 -10 -11 -10 -2 0 6 -5 12 -11 12 -5 0 -8 -4 -4
-9 7 -12 -31 -25 -46 -15 -7 4 -9 3 -6 -2 3 -6 -3 -15 -14 -22 -15 -10 -19
-10 -19 0 0 10 -2 10 -9 0 -7 -11 -9 -11 -14 2 -6 14 -10 14 -27 4 -14 -9 -23
-10 -28 -3 -7 11 -92 17 -92 6 0 -3 -59 -7 -132 -8 -73 -2 -150 -5 -173 -8
-84 -12 -96 -11 -115 7 -11 10 -22 18 -25 18 -22 -1 -28 1 -22 6 3 3 -15 22
-41 42 -26 19 -57 46 -69 59 -13 13 -23 21 -23 17 0 -4 -10 5 -22 19 -38 43
-150 129 -197 149 -41 19 -122 30 -149 21z m1687 -1492 c8 -5 9 -11 3 -15 -5
-3 -15 1 -22 9 -14 16 -3 20 19 6z m36 -851 c-3 -5 -12 -10 -18 -10 -7 0 -6 4
3 10 19 12 23 12 15 0z m-5 -60 c0 -5 -5 -10 -11 -10 -5 0 -7 5 -4 10 3 6 8
10 11 10 2 0 4 -4 4 -10z"/>
<path d="M2525 2170 c3 -5 8 -10 11 -10 2 0 4 5 4 10 0 6 -5 10 -11 10 -5 0
-7 -4 -4 -10z"/>
<path d="M2507 1496 c-3 -8 2 -20 11 -27 14 -11 15 -11 5 0 -6 7 -9 20 -6 27
3 8 3 14 0 14 -3 0 -7 -6 -10 -14z"/>
<path d="M2555 1299 c-4 -6 -5 -12 -2 -15 2 -3 7 2 10 11 7 17 1 20 -8 4z"/>
<path d="M2545 1170 c3 -5 11 -10 16 -10 6 0 7 5 4 10 -3 6 -11 10 -16 10 -6
0 -7 -4 -4 -10z"/>
<path d="M2516 1139 c21 -23 23 -23 20 -2 -2 9 -11 17 -20 19 -17 2 -17 2 0
-17z"/>
<path d="M2545 851 c-6 -11 13 -26 22 -17 4 3 1 6 -6 6 -7 0 -9 5 -6 10 3 6 4
10 1 10 -3 0 -7 -4 -11 -9z"/>
</g>
</svg>
